<mxfile host="65bd71144e">
    <diagram id="U-21QY7bAHnZnq2OsxfU" name="Page-1">
        <mxGraphModel dx="1002" dy="571" grid="1" gridSize="10" guides="1" tooltips="1" connect="1" arrows="1" fold="1" page="1" pageScale="1" pageWidth="850" pageHeight="1100" math="0" shadow="0">
            <root>
                <mxCell id="0"/>
                <mxCell id="1" parent="0"/>
                <mxCell id="2" value="" style="shape=image;verticalLabelPosition=bottom;labelBackgroundColor=default;verticalAlign=top;aspect=fixed;imageAspect=0;image=data:image/png,iVBORw0KGgoAAAANSUhEUgAAAQMAAAC6CAYAAACqYyjCAAAAAXNSR0IArs4c6QAAAARnQU1BAACxjwv8YQUAAAAJcEhZcwAADsMAAA7DAcdvqGQAAD64SURBVHhe7Z0HfFRl1saPQIDQW6ghEDqE3nsTC2Dvioq4q64ddVX0W3cVEFz7glJ0FVRUFAWkCEjvLZQEQg29hBZaGhDK9/5PZlzESUi50+/jbzbsnXbnLc/p573myLGTl8SGDRtBj2u+/uEXmwxs2LAh15w5e84mAxs2bEg+x18bNmwEOWwysGHDhsImAxs2bChsMrBhw4bCJgMbNmwobDKwYcOGwiYDGzZsKGwysGHDhsImAxs2bChsMrBhw4bCTkfOBtLT0+XcuXNy/vx5uXTpkuTPn18KFiwoISEhki+fzaf+BObv4sWLcuHCBf17zTVGIubLr3Ma7HNpk8EVYLEkJyfLrl07JW5jnGyP327+vUtOnTwpaWlnzAK6IIUKFZaixYpKlSpVpHat2lKvfn2pbx5lypSRAgUKOD7Jhi+ADZ+WliaJx47JscRjcuL4cUlKSjLknm4I4by+poAh9cJmTkuVKqVzGFY+zPy7tBJ+MMEmAwOkxJkzZ2Tbtq0yc8ZMmTdvnuzYES/njEZQ1iyOSpUqS+nSpaV48eKSv0B+SUlOkdOnT8nhw4fl8JEjcvbsWalQvry0a9dOevW+SVq1auW3xPBnyXmNIT82hRGhfgLum/k8ePCAxG/fLgcOHFCCz2/mo2jRolK0SFEpXLiQhJjNzmvR+nh9siEJiOMaoyEw39WrV5eaNWtK2bLlVAtkLAIZQU0GqP2HEhJk5apVMm3qFNm4caMulkaNG0uLFi2kcaPGUrFSJSlZsqRZPIV1MfBgw2A6IGGOGYmzfds2WbN2jaxdu1YSDh7U9/S8sad0795dqpkFFRoa6vhG38ZxIzXXrlkje/bskR07d8jRo0clvEq4vPzKK1KkSBHHq3wXzMnJEydk1+5dsnPHDklJSVUCr1ipolSsWMls6rL6O5D4V5oErAVIHdI4cuSwJJh1cdQQPQKhXLlyUqdOHalcuYoUK1YsYM2JoCWDk0btX7BggUyePEl27txp1P1a0q37tUoC1apV0w2cE0nAYmIRxcTEysKFC2TlypWqeva+qbf0NtpCRESE2qW+jBkzfpX+/fvrv9FqILbatWvLrN9mqwrtq4CcTxgSiDcmHSRw3mg14caEi4ioZlT+8krwOd3AEAvaX8LBBNm9Z7eaGZgOdevVNevDfwg+JwhKMoiPj5dRI0fKsmVLpUGDBnLb7XdIy5YtJCysfJ43LAvz9OnTxuTYJtOnTZM5c+YY7aCaPPbY49KxY0efNh02bIiVuXPmSvXI6nLh/AUZMnSI3u+sWb/5LBmg5u/evVvWGa0sNTVFImvUMKp9LdUCrLD5+XxMh0OHEmTrlq1GWzoi4eHh0qx5CzUFAwlBRQbYwUuWLJaBAwfK8cTj8uxzz0nvXr2kXFiY5VIbUkhJSZFVRkP49NNPZN++ffK8kbr33nuv2WAhjlf5FtBuGCMIgA3W75FH5Oy5sz5LBtj6MTHrZU10tJQvX0FatmplzIGKbnH8MZ+pqanqS8KUYoy6dO1qiKFqwPgSgiaWwsJBDX7pxRelgNn4Y8aOkX79+kkFs3jcob6zQLAvu197rXz00ce6UF81tveIT0foovJFsMALFSrk8+YMSEtLleXLl8nyZcuMPV9XbuzZU00xd0UAmE/1JzVqLDfc2FPDkdOM5rd9+zbVHgIB+f/xxhtvOv4dsMAxNH36NPnoww+lYcOG8u5770u9evU9xugljVRt17adkbwX5Ouvv1JiIhQZGuq7Tjls8F8mT1ZN4aGHHlIHqq8Ax+3qVavVP9CqdWtp06atkpgnwJrBKYlj+OTJE8Z02CIFzXcTffAHEs0KAa8ZwNrz5s01qvqn0qRpUxnw2mvqIPQ0yhgb9sWXXlLfAZvsu+++U9+CjZyBECCmwb59e6VFy1bSpElT1Wg8jRIlSkiXLl0kvGpVWb9urTqh/V1DCHgywL4bOmSIREZGyjPPPCvVq0d6zcZDojxiTJObb7lFfpowQebMnq12uo3sgc0WF7dRcweiohoa7a6eV4jACeazZYuWUrZcOfVbHD50yPGMfyKgyWD/vn0ycNBATRh56aW/awKJt2PE5Cw89NDDaq6MHj1KVV0b2cPePXuMebBKatSoKQ2iojxmGmSOa9QEbGEIoUCB/LJk6RKf9QdlBwFLBoSDvvjyC9m8aZO8+dZAtdF9IVkErYQ05r8ac4F7/PjjjzWmbSNrnD51ShYtWqjhPHJBfMWHwXyGhYVJ6zZt5cjhwxIdvdpvzYWAJAMmY8Xy5TJr5kx54om/aXzf14Bm0K/fozJnzmyZPn2639ub7gRkuWHDBkk7c0Y6dOwkRYsVczzjOyCS0bRZc9kUFyd79+7VUKS/ISDJIDExUSZPnmwkcLjce999XvMRZAVs3Ztvvlml3KiRIzT91duAkMjMpJgHSUwhz4Xz5zXFl+gCqbreIC1qQHYYc4r08MqVKzuu+hbQOps0aSKlS5eRjYa4/NFcCLjQIot1lbErf5rwo9x///1aPOSrueRFihaV0qVKy7ffjlPToVGjRl6911OGAAYOfEumTJki8+fNV2nMtT17dsvcuXOVsMjR92Qq7rlzZ83m2qjZhe3at/fpNGByHMhhoeANUsCk8UVBlBkCTjMgp2DunDlmIsrq4vGmtzk76GBMmLZt28n0X6drqqs3gWpL6C7NSDVICfOqc+cumh+BpDtnxtbT6i9ktP/AfomMrKHee19HRLVqUrJkKdm9e5ecNWPpTwi4dGTSfvs90ld69uqloUTve5yvjqlTp8iggQPl3/9+V7p17+64agMtDxt8/fr1cm2PHlKpUiXHM74L7jnG3O/mzZvkuuuu10Ipf0HAaQarVq3UmoDWrVv7BRGAZs2aa2HN6ujVRjKnOa7aIAdj3/59RssrrUk+/gA0KkrYUaAOHTrkFR9LbhFQZMDAL1q4SJ1MtWrVdlz1fWBbRjVsaKTJZjl58pTjqg1CrxSUVahQ0afSoa8GzJkSJUvIocOHNJ3bXxBQZED9+bp1a6V+gwa6wawEUgqPOl1zaIiSkpxsmf2M4ykqKkolCc1SbGSAZivn0s+p1mR13j+blM9nPo84ulVZBYiLeyYqQx2KvyCgyICJxeNNjwKrTAQWDR2M3vzXP9UXcd+998j9998nzz3/nPYrsCKExEKvUaOGLpzDRpr4Y4zaHTh27KiEFChgpGxJx5W8g7GlpyVFa4/07Sv33H23PPRgH42ixMXFWaLW47QuU7qMajb+FGIMKDLYs3uPSvCIqhGOK3lHupFMU6dMkcmTf1HGb9WqtSaYLFywQJ597lmZMuWXPNcXEH4qW6aspk0fOXzEr+xMdwLJHVqkiHUmgiECms688EJ/ee+9d5XoW7VupaXmY778Up55+iktOLIChI0hHvoq+gsCigz27tunKjc9CqxCSEhBLeH9dcYMGfftd/LhRx/Jl2PGypixX0nV8HAZ9803aj7kFWTV0Z+PvoP+ZGe6CxAipco0L7WqR0FySor89/PPZUd8vCGD92XChAny8cf/ka+/GSdvvz1EI1HDhw/LM7mDIqGh6kzkN/gLAooMyJRjQ1nZvBMVnlZa5J+Te75161bZQg17wRBtr4WkOXjwoOPVuQdaARIQn0FmdiYkQdw9M/uWtF2IKT2T9/M878+sFsLpF8ns+7l+6tTJTDcL13k+q/fz+Zm933l/PM9vJa+hYKE/Ny/NLTAj586dI+07dJDrrr9euyPznZANocuGjRppJakV2aAFQgro2jlz1n9yDQKKDAgpsqGsTDRC1SMV9pNPhqt6+ewzT5vHM/LqK6/K4sWLJCk52RLNgIWDfTxv/jzZvn274+ofgdr8yfDh6iR15VfAFn578GDZYgjLFcgkpPcjhObq/bQWH/L225p56Apbt26RYcOGae69K3Cd53mdK/C5fD7fcyW4H+6L++M+0QwghRALW8QxPhA3f0eOGCFDhrz9++Oz0aO1ASyaGX/zCufBLJkRry8ioMjgkvnPapCr/76xL0eNGqVts8kYvO322+V28yBqYVaxnLdowrl7/Af5skhhzZc/n3mN62njvZzrkNnbrzH/Zbzf9Qv0/WYBZ/q8+S/L553vN/+5wlU/31zn/vgmJ6yc06Sk0+rUoxSaCsgF8+f//li6dIlqCkR1OF8hGBFQGYhDhw6RH3/4QaZN/1Vz/a3A4sWLpc8D90vvm26St94aqOYCoGjnnXeGytgxY+Srr7+RHkbNzAv2798vr7zysi5Gei9k5jRzSvTMNhTPZ/Yc8JfnkagTfvxRsw5pPGqFqUDPwieeeFyefPJJrWbNzBdBr8O8apcIEaJN1HLQms0fEFCaAUU/MD8Pq0AMGo2gVq1a2piEhcoDdXLL5i2WqYF8ztkzZ696SIfz+zNDVs8Bf3keDQK/DP4Rq6IrzGF5Q+a7jZmANsd8Xv4gy5Hxt8LMPH8+4/g2+iP6CwKKDOhHh5OKWL1VYPGEGikdGxOrzkLsdmzOiRMnas68VUDToDIvrJz1bdv9ERBi8eIlJDUtNVOHZE5R1ayPnj17yerVq2X8+PF6Ehbl7swpmhmp7Bytl5mDMydAIEFi/lBc5URAkQGNTtlImTm4cgP8AnieOW9hwKuvyGsDBsgrL/9dT02KrBFpSdgL1ZhFiQZSvkIFy7zn/g6ySEnaoZLSChBlerhvX+nYsZN2qX6+//MyYMCr+njxhf7aRn/SpIl51kSYz+TkFNVy/IkMAqqfQSGzMakAJGZP+a0VEhbbvUGDKM0oo5sxh4rQQq3vw32lTdu2UqduHS1BplV2bkEYbdGiRcbs2CR33HGHVDCEYCOjlwE9Ijnj0IpDXNiczFOz5s0145MSY7QCTAbqH6gYveOOO9VPcTVzJiswnxy2ApE1bNhIw8b+gIArYSb0dzAhQUaMGGnppkJaOCUGC8UpvZ0Or7wsHg4EefPNN7WjzzvvvKOHhNrI6GUwdcovRjuLkmbNmlmqMTFvzCd/gXMOrfgOQtzz58/TlPiuXbv5DRkEnD7aqVNnOXjggMbqnRNtBVgkOJZ4oHFcvnjyQgTgxImTGoOn9TeNMWxkgK5GmApHDh+yzFRwgjljHi+fU6vIhqxD2sYhjKzQTj2FgCMDwjjYabTUtrISzZ2Ijo7WCjd68FuWhx8AYJNyliFJXYTq/AFoGwkJB2EbPf/RSm3G3Qg4MoCNW7ZsJcuXL7ckTdjdwOuM04riJ84CyKuWEUhgI3GQKn85QckfajbQYDi0tly5chqu9CcEHBkgWUkAOnLksKxYsdySMJE7sXLlClmyeLEeHGo7Dv8MDimpVLmyVhMSfvV1UOxEjUxk9Ui/0/ICjgyQIo0aN9aeBj///LMldQPuAtGJ0aNGqbf8hhtu9Cv70lPACcdJWGeMBrVly2bHVd8EWsG6tWuEZrxVwsP9TssLODIAqGh33Hmn7Nu7V34YP94ntQPuacovv2hb92eefdZnzwPwBRD2o0KURqN0g/JFXDQmDAfCJh4/boRRI0srZz2FgCQDGJljunv16iVjxoyRpUuX5jmRxEpwL7GxsfLtt99qQhP3aSNzEJqjvJiageXLl0mSj51ezXzuMYKHOY1qECVVLWyu40kEJBkAIgoPP9xXqlWLkHeGDtHW1VaGGvMC6uXHjh1jzIJ88vTTT+sit5E1SBZq266dJB47JuvWr1OzwRfAmkpMPKanMJOY1rxFC7/JK7gSAUsGoHpkpLz++v/JqVOn5YP3P1Avr7dBVto3X39tbMu10u/RR6VevfqOZ2xkBbQ9jtNv3ryF5pBs2rQp0yYungQ5BRABYWwO7fGXlu6uENBkgDORswwHDR4sMbEx8p+PP9YsP28BdZI2ad+M+0buuvtudRr6qxTxBnCwYi7UqV1H1q5bK/Hx8V41/0iXXr16lYawOaeDMKg/I+DOWrwSSBSq1Tj77scff5C9e/ZKo0YNtVTVU95eVEky0kaPHiUff/yR3HPvvfK3vz3pd3FoXwCEgIMYv8HGjRs02sDcejISw3yi4S1ZvEh27dqtRFCnbl2/jwYFPBkAJonClNJlSmshU/SaNRrOY1GR5eZOEDWIN2rtp59+KhMm/Ch9HnxQj32z+lyHYAKVojSZSUtNkw0bYo25kC7FjXoOMbib4JlPfD50RiKy0aZtG6lfv0FAaHgBV6iUFcj2o8X5KCOhSQy5/4EHpHfvmzSs5460UZJkFi5cKN+OG6dNUh7o00fuuusuv7YrfQkUBHEWI+cdQK6YEOHh4ZaUlbtCcnKSbN8eL5s3xZnNX1CdhZTNu1ugeApBRQYAZt+5c4d8NfYrmT1ntrE/axtS6CNdunRR08EK0LVo86ZNGjpcsGC+OgkfffRRLXm2aw+sBWN9YP9+bRJLlWOVKuHSuHFj7QthlZbAd5AOTTHZ8cREdWQ2btJYk4s8ZWp6AkFHBk5k2HyL5ZNPPpENxvZs26at9O2b0aOA2vncTDIZaIQw6cf/808/qdqKb+BOow2g1rpD+7CRYcOjJZDaPXzYMB3rBx98SOrVr29MQY5my4XkNp955uxZba8eGxOjZMCJyq1atZKIiGpu0z68iaAlA6Ax4mPH5Ndff5Wvv/5aNQZ8C9Sgt27TRmobrQGVnoknJ8DZlZj34cVGy4BUWDDr168zWsACiV69Wm1JogWENSMjI20S8BBIPR837huV5CWKF9f54UTkambzcrAOc4lKz3xA9k7CZz51Ti9c0BDhcfM5lMHv2bNHTp48oY5eUtxr166jZdWBiqAmAydYCDQ4pQfegvkLjA26UXMTQkMzDtAMCyuvp+qGFg7VVt4smJTkFD3whPMATxr1lDMPatSoqd2N44xNSa+9e+65x/ENNjwFKhshauo+9u7dI/v37dfyZ64XLlxIihQpKqFFQqWgsflpK3/p4iU5f+G8zmlqSqo2mkHLOJ2UpDURUVENtdN2MCSG2WTgAIsBqYGqj2QnQWnXrp3qOYYoWCAkuVw0xIHnuDAhrTJlNLaM2ohGEW4WTTEjkXi9HsttOwq9Ckie+eS8BBrIcEo3Tt0zaWeM1pCekaNgtAOiTcwp9QTFixWXlNQUTQy76+575Nprr82VyeiPsMnAALXyyy++0HLZu41674wXo2bSmRei4C+tr8360uchDnwCPFhIwbJg/BloBxkPjm/7X8szzAbm1Pkgq3De3LlqGqAd2GQQREg1Un/goIFSrmw5efGll2wbP8gBSUAarINgWgs2GTiAdpBhV9qhP38CDlzgjyXDvgZbBDqgfgCbCPwKmHFffvmleXxh2UErwQybDNwIHI6cLOzN4qhABuo8OSHFimZ9JJ2N7ME2E9wIQo8D33pLOnbqpIejBEraqi+BaAFRAdtMyDtsMnAjiEKsWROtRVHksNsRB/8CZogWQqWnS+vWbRxXAxdBTQbUo6empll28q6NwAI5Cf984w0l9WHDh/8ecg5UBC0ZYG9yGu/PP/8k/fr1szsO2fgTMD9IPsMfEQyaXVB7Xehn0LpVaylVKveHptrwLChDpwZBswfdDEiAzNLq1asHhYkX1GaCM7kE9c+25/0DFJUtX7ZMnnzqKbu9vMUIas0AAsBX4CkicKa/2sg9SpfmhKVKdk6IG2BHEzyEvXv2yPjx47WSka7NNnIPSNXW5KyHnanhIVASS4fmo8eOOq7YyC28QQSEGSmL5m+gIig1A6efwJMgXTYxMVH7IwRil5xAB5mkNNO97bbbpVatWo6rgYWg0wzwRn/zzTeybNkyxxXPAAKoVKmSTQR+CrSRQNYKQNCRAU1K6JC8ZbNvn+hrIwPOiI+3QV8DWtzTxi5QEZRmAoQA09v57L4NiCBu40ajnk/VprL0pLQdh+5DUDoQ6WdnE4F/IP18uly4eMGQgHcch8EEO7ToBZBBR+ddVE77iLWsgYlAZSJ5BYFeG+Bt2KFFDwPVd+eOHTLmyy9k586ddiLSVQABoMnZROB+2JqBF4BmQAEMee+2ZuBfQEvZu3evVKhQIeDmLmg0A0KKOA59QRKXLl1amjVrZhOBH4J8g+efe1aPzQs0BIVmQHOKyZMnSdzGOHnyqScNq/v3OfqBDKoRaXKKj8AXe0xwIMuaNWukbt26eshrICEoyAAn1FozgYcOH5IuXbr+frgJWgKJJDzwVJMQ5G+99Ng83HugeNoTEg7KTxN+0lZxaE9XAmJnvpgn5suOMFiHoPEZsGl4OB1RHKa5bv06PSeRnPMC+QtI1apVpW3btlK/QQM9HMXXwcnDHAdXypgd1113XUBIqv3798vXX39lfs/1esipE/hZVqxYYX7zOjl16qSeeRgRUU26d++u/QZ8BawxHMPr16/Xsxv/AOUt/ueSWWftzP1HcMFnEJQORCTLE088LvPnz5ewcuWkWLHi6hg6ePCApgz37/+C3HrrrVLIQ2Wy1C2gEudEK+EIuGeefkoPeyVX/oMPP5IOHTo4nvVfoMXh22Gz074e7Nq1Sz768EOZOXOGanUlS5ZSUyIx8Zi8/Mqr8thjj+nrfAGsrR/Gj5e3335b2+pdDjRR5hqBNGbsV9KtWzfHM76BoCQDFtxvs2bpWYm1atWU4sVL6CThFHr9tdf0+ogRI6Vhw4aOd7gP27ZulXff/bc89fQz0rx5c8fVrIGq/Mknw2XUyJFSwGyY/IZEPh0xQjp16ux4ReCADtNvDx4s06ZPk/7P99fTrWmPDmGQUk7YsUnTpo5Xex9s+OPHjxvBcvAPzmrMmbVr18gQQxIlSpSUGTNnaqctX0JQ5hnAzD179VKToFy5MDUJOCgV1fTOO++SfXv3yu7du1TlczcKmu8ukoMTfrkn1OVJEydKv36PSnMXdnWgANJevnyZ0eDmyd+e+Jv81WgAhPSYrzKGsNsbTcibRMD9oQlcDjY9lamNGjWSxo0b//4glfrkiZPaZPX222/3OSIAAU0GMHNONjTWHOo66ik+BE8Au3Ho0HekaTYXNebB+O+/lwoVK8oDffoY0yJwk3HoSoxPBOnfrXt3nc8TRuri0ff2CUrcy+LFi2XhwoWqqV0NHKSzZMkSDSff2LOn46pvIaDJYOfOHVqufCyThiIQBUztVOvmzJ0r8+bN1Y1ZyzC5JyILfAeLPTvfxaKb/dtvEhe3UR64/wFHD0D/t/L4Xa5IG79AXFyclC9fQQ4bEsRv8NLfX5JXX31Fhg0bpk5gpLO3EL16tayJjv6Tb+BK8NswaWJjY9RxSAWkLyLAyWCnTPz5Jzl9Oslx5Y84evSovDN0qNx7z91y7733yIsv9Jew8uXl7y+/4lMeaid27dop48Z9Iy1btZJOnTsHxFkPqNljx46VcYa0r5SwkMHhI4dlx44dMnDgWzJl6hTVCA4eOCifjR4lz/d/XjekN4A58NDDD8sj/fpJaGjWRW+q4SxcoL+nR48eSv6+iIAmg27dust/v/hSe967Ar4DbE9UbrzULLTt27apU8/bauiVQAJ++umnRpNJkfuNVuCLNmduAAEw5tu3b/tTzgChubNnzkh8/HYJD69qzKPxhgy/lR8nTJBXBwzQKMOQoUN0k3kD+C/KG+FxNa0OoTN/3jypXbuONG/RwmdJPKDJgEEPCwvLtMiFDfV8//5GMn0lEydOkp/NIyKimrz33rvquMqJv8EqICmv/F7+/y+/TJZfJk+Wu+++W51RhEJ5QBIXjf167uw5lUCXe7D9AYQQ3xo40Kj+A/60SfKZeSOxCHPo0UcflaqOuDzvueWWW6V9u/aycsUK2bxpk173VSxauFCrVNu1b+fT7d0DmgyyA4iCRYiHukmTJvKwUf2SkpJk5cqV2XIMWQkcY9OmTZOtW7c4rmSAMNp3336rmz/hUIJ8/vlnGlr89NNPZJuRqidPnJCJkybKN19/rQlU/gY2d7HixR3/73/gellD2BB6lfDwP0hgwouRNSJVKzhw8IDjqu+BuWNucBx2aN9Bj/LzVQQ9GVwOFhtFRJADhOBpzSAlJVmWLV0qu3ftdlzJANKezdCgQQPZuGGDzJk9R+bOmWsec9RLzYbAkbV06RJJS/OOyuwOQAY1a9SUdKMtnT//R2JGI0Ibgsx9ua8kWaIrli/XuWvUuHG2HMXeQlCSAaq4K6nPtdjYWK1wjKga4XHbDq85ZkvHjh0dVzKANHn99dc1a23U6M/MY7Q+Ro4arSm72K4v/f1lGfz2EM2bCBSgrbVt106SjLYTG5NxGrITpC1vMMSIqVerVm3HVe/BleDgfidPmqwaHf4rslt9GQFJBmz2rGxnwlUv//3vMmPGDPVUHziwXzZv3izDhw2Tjz/+SPsMsCFDPEwG5DdUqVJFijsKqZxAmlBpiSP0ygeead5XsWIFfa+nCcyd4Hd17dpV6tWrJx999KFMmjRJ9u3bp9L2gw/el+jo1XLfffd7NVSHhkJS1PDhw1WbvBz0rPjtt1nqZCRPwtfnJuDIgIKWwYMG6SRkFoNGtVy5coU89+wzctutt8rNN90kd9x+m4waNVJatGwpb741UOrVr0/8yPEO30WZMmU1GlKwoO8XVjlBT4Cff/pJfSRXA4RH/UFkZA1NFb+pdy/p88ADsmjhIs3AfPa55/4UhfA0kpKSta4FB+7lQMvk3nr17q1OX19HwNUmsMB++GG8poC2adPWpY2mIcTt27X9GGXNZ8+c1QapEWbhNYyKkvJG7fZl2+5ysLFInKJYyV+apcyaOdOQ9W+aJxAR4TrsezlQwdEI6CPApgstHCq169TROcaR6G1gVmISYM451w2aKfe83zyIglAR6+sIODJgEtjszijB1XC5OeFtCRMsQJ0mAlLR2NDOysTswjlf9lxZj6CsWvQHsOgTEhK030J9Y7L4ckjKRmAgIB2IgQD8HZz89O93hqq6acOGu2FrBj4MavlJZeV8BXoC2rDhTgQMGaBW23akb4K5QdPBjxPIc6RFVAcPSNmy5bQ/hr8hIMwEJoH2X6tXrXJcseFLYINMnjRJzxu43GEbaCAbdPCgwRr18EcEBBmkpqTIrJkztNmEDd8Cm//Y0WOyfMVySUxMdFwNTFD52qlTJ6nqp41pA8JMYMGx0PIZFbRM2bKOqzZ8BWSEUj9BrUFOQ4n+BnIiMIX80RyyHYh+AmxuujERYqSYyoYNq2GHFv0ElCYPHjRQ5s6dG9B2tw3vwSYDPwHp0jfccKMmINmw4Q7YZoIfAds70MNzNrwHv9YMcNZkVpkYiKDWwh+IgO4+s2f/piW8wQgKl5YtW6bt2DzdICcv8GsyWLhwgbz55r80f9+G7+BQQoKM+fJL7doUjKBy9scffpB58+a5bKLjq/BrM2HJ4sWyavVq6dOnj3b7seEbIAlsz57d2nUpGCMfEAANc2ihTmMTfzHr/JoMMBFYeLTH8pf+A1bBefgLdfK2D8GGFfDrHYQzjUSWYCMCQotzZs+WN/7xDy1msmHDCgTXLgoQoAlE1qgh3bt3VzK0YcMK2KFFG5bg4kWiOtcEnZYWSPDLmbMz8HwLhM+WLV0m0dHRQRXqzQ5ok45vxx9CjH5HBjT7IGTDXxu+gfT0czJnzhw9Idqf4uqewKJFi+TDDz7Qrt2+Dr8jA86s48ReQjc2fAMhIQXl4b595f4HHgiocxusQMGCIdroxB8iPn7nMyC7i+o9DrC0nWf/gx4cY6RyiA8fNRaMYF4wnTgCztcJwXYgBgDIORg37htddH/5y1/tfok2cgXb9RsAQDXnnMayZcvaCUg2cg1bMwgQkIlJWM+22W3kFrZmECDAJvUkEWzaFCezZ8/WCkUbgQGvaAbkCVDMcSYtTVJSU+Ts2XPqaEHBLRASorUGNPO4vGeeM7fAVoPzDsJ/Z8+ekdTUtIxzAo1Wcf4CrczzaWQgNLSweRRR3wMp364wfPgwzSsYOnSoVK5cxXHVRmYg/HrkyFFtmsra5pDWtNRUSTtzxmh1Z9Xfw1hzgG6oGfdQ8xrG35NJXB4hAxYfm5/STspbDxw8IInHjqlUcZZ4Oje5c9NDCBw3TuUbxTi0QmeA7r33Xh1MXwD3ym9zlQTF78lsI3kSzns8axbdUTPmtC0nGnP61ClJNURwARI29+oc/4sXLykpsBA5Gr5SxUoauQkrX17H3dlc5fTpU2Y+T+kx8N76nc7fhiC5SLKTuS+0Ix7O3+NtcI9sdE7FWjB/vlZxnj+fLqdOn9aEJL1vIwadt3vRvD6/IYDCRhCWKF5cibayGeOwsHJmTkJ/H393wK1kgMQ5YQjgwP79snffXjmeeFyZjrgrg8KpwcVLFFcVVxeUuRMkFEyZdDpJTp46qdlbyUnJegZ+0WLF5K9/+avm5ZcsWcK8x7v2MRO8cuVKI2GNqnzZKLIAuNfevXt7JfzJBuFwU1KEiTTs3bNX9h/Yry3lGeuSpUpJ6VKlpYQZ/6Jmg6ONMS+EJtPNxkpLS9XxP3HyhCbLsGghh0qVKumpyZSLQ9Te3HB0W962bZuaKzt27NB1ElIgRAVHy1YtpXHjJnqP3gJzgNZ19OgRHX9IOC3tjBFyBaWUGXtOjy5h1nCRIkWVvBj/DGJL1992+tRpHX8OqMUfhCCsYogholqEIYbyuq6sHn+3kAE/imq67du36YaB/cqWK6c/Jqx8mCGDEtlSgWDUM2fSdGAOGGkGqbDICxcuJNWrR0rNWrV0UL21KGfOnCmvvvKyThYbxakh8KdixQoyYuRIKVPG863b2cAcWpIvX4Z2AgFUdEh4WsmzSa4W9+a3IHFZmHxeQsJBSTiYYLS5ZClliJwj4CEGb224devWyVtv/kuT0OgZwClGbKTdu/cY6XpR+vZ9RB555BGvnGwECewzwi8+Pl6OHT2qGlWlSpWlUuVKRgiW+X38swLjj9aM9nzCEN1BM/5o1Skpqfp7a9euLeGG+NhHVsFyMsAO2rJli8TFxen/r1Gzhm5cNAFuPLcbF4LBx3As8ZhKgt27dumgIgFq1Kx51cF1B6ZNmyYv9H9eOnfuLM8+95ySgBPcT506dTx+TgCmGCdLRUevlmrVqktUw4YSHh5ubNXiRgKF5Hr8IQa0jEOHDkm8IXlOD6pkyKWJGX+OVve0qbBx40b5bdYsqVu3rtQyG6N48WJGeFyUbVu3yqDBg1RwDB/+idzYs6fjHZ7BkSOHJWZ9jHbfKlPGkGbtOkrCrNXcrgUnMScbQYiJh5BF446IiJAmTZooEVohEC0lAw4yWbF8uWHnXVLbbIRmzZorCRQowEKxRno7B4bahNWrVuribBAVJS1atPS4L8FJBnfddbcMfecdx1XvALLcbzbA4kULJdlIk2bNmkm9evV1EVq5UfkeNCH6G66JjlaTrlXrNtq12ZOEwBpAcl7Z2AZtkgSs5559Vvr3f0H+8cYbHiFkxiV++3ZZsmSxjkOz5s2lZs1aqs5fTQPOCfgeNI/txkRav36dmngdO3YyAre64xW5hyV3yQ3ChLN/m2UkxiG5tkcP6dHjOmPbhKk9ZBURABiQyYVte/bqrYSzyWghOGeSTp92vMqzYGGizvHAvmZBehKox1u2bFZJmS9ffrnlllukVavW6rm2eoOysNHw6tWrJ71vuknVXwho5coVShKeAuvK1Ubj95YzkhKwaZymmzvBnKONzZo102gDZeSmm2/53WdhJREAPo/PbdK0qdx4Y0+di1+nT5PY2Bhdh3lBfsOcbzr+nStABHuN3bbUMGJBw9JdunSVyMgalg+CKzDx5StU0EUfH7/dENJBKWcIyB3OFVfAgTVr5kz1j6xYsUJ+nviz+btcDzzx1Em8bMBNmzbJ2jVr1Rzofm13jcB44vezEPF0M9cbYmPldNJp/W6cZFYKgJwAn8bn//1cOxNTONXcSGh3jkVycpIetAoZN2rUWDoZk5H16G7wm4qZ9RUeXlXDxIw/xIdPKLeaUJ7IACLAJFi8eJF6qNu3a2/sx4rmRt1PBE5ACKUNG+MZ37lzh6rK5Q0hYDK4e0OgDeGlr2ykI/ZhAXMvaClTp0zRqkpURXcSAhrI5s2bVV1ETWzdGm2gpONZz4CFRyp0aJFQ2WLuhSgEhGClYyu7wKf0y+RfZMSIEdLcaIxPP/OMmqnuAprHWkMEmEyNmzRWLdXTvxszifVHSHjr1i1KCOXKlXVo5DlDrsmAL8VJs3DBQkMEJdVuKVcOR4bniMAJJBNhSjz3OLeOJSZq+Iu4rDuBBGjbpo1RC29Ws6hb127Suk1b9WNMmjRZw59tzPPu0JIYfxxJy5ctVSJo1aqVRmm8AVXNzdwT/sJ5TEINGpsnbHUn0JDIiHzv/fekmFGjBw0eLFFRUW4TCBDx2rVrVDts3Lix+a6GujG9AfwGmOT4UCCEQgULafQup+su12Rw8uQJ1QgY7Ouuu14Z2N2SOCvw3WxOQo1xcRvlfPp5qVixYq4YMrtA+2ATcBgqEiEjhFTJSMowmTLlF3Wo3mzsR3c4NiGcuXPmKOl16tRZ78GbYOGxBvhL7J/xYIF6Yk2wMRctXCgDB74lF4y2+u6770n7Dh0s95c4oURsSGDp0qXSsGFDadq0mdeIwAnWOf4KwvDbtm1VX05O10SuRBbMvyF2g8b8u3Tp4tVY/+XgHoi94rzRHIe9e3XiPAnuITIyUmPBCQcPajjOauCoxGHFAujUuYs6lHwB3A+hPvIPkJqJie7v3IypSgRrwGsD5MyZszJo0GDp2KmT24gAHD1yRBYtWijhVcKlefMWXglruwLroGmzZno/nCnCPs0JckwGah4Ye5hDMho3aSIVjPT1JbAI6pgFiR27YcMG3TieBuzM98LMVqvKSEFCWGy0Dh06KhH7EnDesi6QlBCWOyMMLHbarfXv/7y6Kwkjdu3a1a1EgJ9g3fp1uuE6de7kFd9IVkA7aNGylWY+EmHISWQrx2RAGAXvNTY6WWjuHPjcgk1I7gH58yShuAPYZ2SXkaHnBERJ0s+vv/6qanyLli11cqwE5tl2QwYknERUq+a46lugr0LDRo1kr9HMiPK4QztjU/7663R5/fXXlBRefOkl6dGjh2pmEBAP6i6shEbO9u5RjY+8Fm9kl14N/H58SAjE2JgYXaPZRY59BkQPtmzeYtSRplpE4QvmwZXgnrDTye3esSNeMxSttukIJ/73889VMiUcSjCLZJ+sX7dOxn//vYwf/73mQfzf6/8n1SzcsLD8tq3bMojGLEbSgn11/PHfHDp8WNPRMZusHn/GevDgQRKzfr0ufjSS6NXRsnjJYk38WbpkiRIGdSxWOXDR9tatW6vfxfh70kGaEyCgS5UqKVu3ZEQXCP9mR2jnaJRIakD1RjUlvukOL7lVYPGRGIPN7g7tgN/O4pg6dar806inzzz9tAwY8KrMnDlDOnTsKMM/+USat2jheLU1QAKSil2hYgXNp/BFInCCSE6TJk01r36PG05jTk1LNZuxoKYio61CytOmT5Pp06frA61hY9xGleZWgE2F6o1TuHbtOlpm7MugBqJe/fpqzlPElR3kKB2ZuPqkiT8bu6ybqoF5AYk508xGKhxaWHr27GnY1nqPO+Q13SwQcrrvuPMuZXSrwOJAFT1y5IhKakinsCEg8vXRCtzhVEIrmzt3rnTt0lWLtHwdaDIUTOFYvP6GGywdf+YWEsjMBOE6c2CVTc/3oW0cO3ZUelx3vZrJ7gDkRa5K9Jpo9QlRkJRboL1OnzZVSRk/ztWEd7ZFO4NLOIUJrRIe7riae8Cwb731pvaUT0qy3uMOnN5tqu4Omw1rJZDKaB+UzBLj79atm7Rr315VVncQAeNPFRwxdLQCf0CGM7eOGf/jctzMt5VgbvENkdTl6oGZYqVzD5ODykFCdu4IFTuhYdJFi+S1AQNkjSGEvIAxoA8F901C1tWQbTLAUYbzhNAdX+IvqFIlXJNhqPaySmX0BijlJruSCkFv5xTkBIw/fSeOHD3q1+OPlEUTYfx91VdwJSBM2gacOnVKi9euhmyTAexOXgFebHdEEFgo2MQ8MlP9cgNirxUMO2Lv8dn+isTE45JiTBESqdw5/iz4vBa8XA7GH2cWna3cGWZ0N2hOQmafO9Kbz6enWz7uALOAWgX6iUAIV9tX2SYD1Ho+vGIF6/MKsLk///wz+dsTj8sTjz8mn40erfXyVoB7RrU7fTrJaDf+27wT3wS/hQIoK8EGpdDm3/9+Rx577K/S75FHZMCrr8qkSRN1AeUVSCdSY/ER+SsZQ5SHDx1WP4GVCV6Mx8KFCzRhqt8jfeX1116T5cuXS/r5jFaAVgAtkgJCQtJX08yyRQZ8yKmTp3Qgilg4GNjdLLjBgwbKhx98qDbxMjMYr7zyssaPcVhagdJlSsv5Cxlde/wV2Nw6/hbaqxDBjz/+IA/2eUA++vAj2bp1qxw+climTZtq5mSQ1hnkFc4wI30P/FUz4L7JWaEGxyoTAS2AfhhPPP64fDtunDEBD8jcuXPk+eeekzmz5+QoWSgr4L/Cz5fRBs8CMrhgNlJScpI6Zqx0jrFQaFt11gz2V199JdN/nSEzZ86S++67XwcETzTqU15RtGgxWk6qE8gfQfLMqVMntWTVynj9qpUr5Z2h72j0Y8zYsTJjxkyZMmWqzJ4zVz405GBFjgRzTJ8/elvSlNUfwbqhk3SJ4iX091gBsng//WS4ahujR38m0zQcOkP6PNhHNm7c4BBcef+ukJCMvg+EwS0xE86fv6DNTflQqwbDCSTdQw8+JK3btFEJUqNGDenfv792g124aKF2NMor2EDcdmpKaqbsCBMjvTIbMJ4n6zCr55EgeXk+s89Hq6Gldmhh67rmIJm+//47s9BTjXnwuFx//fWaLYlaSYSkS9eu6p/IK1gvCJBLFy9JilngeR2/zJDV+IHsjr8rQGKXLl20NDqxdOkyzSS97bbbtRkQpEBq/z333KuVrlbtM5rd4Otg/1pmJkAIVh/qycRQ9UfXlssXeXjVcGnQoIEWGllxlDWfjc1NUgr+CVeg0m7YsGEufRX8/rVr12o7rcy6KREbHjtmjBxx8X5+56pVq4wEGKUdiq8En79+/XrNXMQ3cyXo7YeZwO+wapGQF7E6OlpbnZNN6k4POfdNavLkyZNUXXWFq43fsmXL5Iv//telqcf44ff44Yfxma4XbPHRo0ap7+JKOHMIJkz40aX2SMdogP/DKtCDAnJp2KjhH0w/9gPl0BkauGviyglYL9w3aygzInQim2Lmkn5QPot7FfCZqL6YH5eDUBSptqg2VpgJ7B8+a+eOHfrXFY4dPabprK6e5z7JU6AJZ2bS6eixo1oYgvRzBfLZ6eh7zoX00c8/fEhrPlwtRp6nIs/K5kGMK9mBNENxdx8EbpsuSEhCtC9XyGr8+P2o1TEx63XjXgnIgM7BmzdtztQUxP8EobtyYvL+ffv3a6MYV9oBz4Nr8lk3AZB7oUKFdewvJ3g2Lr4JK4mHCTA7WMcxK2Rrd9OwhHCWlV5OwCCcM5Nz5QRz01xHWtE9KK+gCww56k89/YyaIa7QuUsXGfvVV5pHfyX47XTZHTJkqHrGXaFz5y7y/gcfatLRleB33nLrrTJyxEiXVYZ8/vXX3yBvvvmWti67EjxPnwRwtQnNLvhMzCc2Bz0U3QnumLr/F198KdPinqzGD82CprP/+c+wPwkOwMbp1bu3/PNf/1L/hyvceeedMtJoBvRYuBJIYQ7neeONf7r8fOxucMFox1ahkNEKXJkmuvazodJnF3we38MY0jo/K2SLDFg4DLjVoSE2CckcFBNdvsiJMBBZwIaCJfMKJRvz+Xjj+S2uwHXUNgbNFfj9Gb4H1wPK81d9v3k+q/dn9vncW8FCBS0df/wzdDSmyCo+fodli88VIBt+V9GiRbIcH3eNH3B+flbPQwquni8YknH9XLp10ZD69eobLTRZdu3c+QdtEzOG+pOMa67vNSdgX9Hoh993tS5kWT/rAB9UxEwkdqYrNS0v4MdPmjhJbUoWO0UVE3/+WRdoixYtJKxc3lNvsdMZFA5f8UdABqQhpyT/7zi6vIKNc/sdd+g5F4QXaSCKis0ihIxZpJnZ9zkB444nPp/ZTHynP4KjztBSWf+XC628oEOHDprANHPWTIkz5idmG81Vly5dos11keZWgP2adiZNnf+ZEa0T2SphhhVppoFDr379BpaEF6n7xyHHIOcvkF8HgHZlU36Zoo40DiB58qmnpJpRGzNj8+xi/759kmBsyvoN6vtVKq8T/H40KHpO1q1bTyWcFUClPnXqtPz22yzNg6c8etWqlWYOJsucuXP03AXaquUFaBx0z+ZsQa32M4vS38D405cBUuZgmqttquwAzYzKS9rbx8TEyI6dOzScPmvmLNVA2B+9b+ptzKu8FQQSLaJql6bBRImyuvdskwFSg6SUiIhqllRswXzJRk1q27at3H33PRnnFhpCoIaA5qovvPiiNG3aVLWSvIK4bfq5dGnQIMpvpRMORJpdcjqVVRVzbEyqTytVrqQONBYlXZSYmxbNW0j79u0MeeatuzOftWXzJsmfL782w7FCkHgakADCBI0Jn5IVvwEhiMCjqzgkrGvUqPO33narXHttDykfVl57WxLtyQs4HJemreSM0P0rK8Ga7RJmQjY//jBeSyHbtWvvuGodWDSoSqhhhFqsYF+AWj3BqMEcVtmte3dLyMUbIOno++++k1atW2tjDavBODkjNxAmizWvGhkgOjNt6hQVIty7v44/oc+VRmu68YYbtUzdKrDeMY8Zf0jGSmHFZ9MLlOSybt26X7XaONs7Di9rhQoVVeWzItx3JWBfHHyo8VYRAaD+HJULb7y/LkSAhNZyVKM5uWP82fzMMY/MHGm5AQVKHP1O2bU/jz8NbjkqnRColc5Wxhmzj3G3WmtFwJI3g3AtVvzq5nG2dx0TSVcZkmKsKiJyN5i0+O3xutCtZHNvALKsUaOmHmuf3c413gaSCc84XYHCMgnJ+guKGxufCsCDB9xDxu4AZe/kt2AekBJ+NeRIBGN3wDKcXGSVV9udcIZpcEL6Whfh3CCjfDyfJtBYHdVxB9DIdu7aqS3y2Ez+DARK1aoRKgwp57cqquBOUPxExiY9ELOjleWIDFDh69arp1EFvNu+DCZr586d6k2NahClktXfgQeaZiGYaoS5fBmMP3Y2tfq0aPP38cd0xZlXIKSA7Nq5S1VwXwbCOm7jBu2FSEQoO2ZfjsiADyRZwvxLE4V8WTvA84v3PSKimjJjIAB2r1mzpsaj9+3b69ZEobwCYUFD0lq1auc5POkrQLuMMNoBa/+U0Xp8GeSJoEHSdi67PRhy7KlD3atbr67s3rVLi358UV2CpDhiimozTpjJDiv6A/gdOBHRDjbFbXJZdOMLwKamhXmIIS8On7XSIexNZPjNaqnJEB0d7bOmGkRFvghmDaHo7CLHs4S6R8dWHBIbN8RmWvjjLUBOkBTpzIEklZzA80wLbBJT2HC+pp2hPu8ygmL//n3aKt7qQ2S8DTpNUVWo54ds2exz5gJhylizL8kLIpSbkySvXFF2yZKlJKphlJYFc46CLw0ItjSbhLblnJvgz+EsV0A7qFixgpZ4YwZxDLqvmAsQMecQIiQI5dapU9fxTOAALYdkISQux8dRTekr2jH7EOf+jvgdehiss7gtu8gVGaAdREbW0COcYtav0zRiX1iQSMnVq1dpbkHjJk01FBSIKFAgRLMpSY1dsWK5SilfWJDaI8GMP/fSxCxGf0w9zg7ott22XTvVjsmataIBT17BmJMluW7tOkMCFY2wbphjp22ujTkSUziBFlKgzzspj95ckNhv2EkbjaYCK5I2Gii2qiuw0Tp17qze4sWLF2s82Zvjj3q62KyDw0Yz4OBPknQCxVfjCqSEd+3WTdXx5cuXCT0SvQkc5jRoIdrR0oz/5Q1Tsoscn7V4OVDBw6tU0TMNsZ/IoMLj6skwEhuA8CEOnZj1MZqqi9Mq0MwDV8CRVdFIAeo6OEaLPHcy2Ty5CRl/FiJdfgk5d+jYSX1KgUzETuClpznM9m1b9VwIUt6zKpN2B9DI0UzmzpltBGK6dDLjT+l/bu4hT2QACpDdZ2yTJDrZGO3g4oWLypqeKEhhIZKNt3bNGrWVOEaqRcsWukmCBZxpyKnH9CUgnERbbPIRPEHIaGOkR2Oq0LkHIuAEK08KA2+CDQf5kupLTgukTC5OUWM+5PPAGFBuTlSPw2bZCxT4UX+QWyLOMxkANILyYWHGZj+vTq3E44lqT1lZcHQlWIh0VsaJQ0YYfRSpwPMECfkSWJBIKAjh5ImTsnlTnJw9c9Ys0mJulVJktqENQsT0Kmjbrr3mQAQLETjB+kYbLl2qtDHVEmSr0RKQ1tSSWFnjcTnY+ISVMYnpnckhNRAx+TR52W85Onj1aiC+jDNrjVHZYa0GUVFaE4+ksmpQGGgqKDfExmpPPRpIEsLS7LAgMA0yAwuEMC99FDfExuhibNKkibZ7s7IABhLWfo7r12nkoHpkpDRp3ESdtcFgGmQG5walTyPrsmyZslrhSwq5lesSUwAhuH7devVTkBFMzwP2WF5hKRkABgWvMoRAlAG1CfW9dp3sZ0K5Ap+LbUpHnoza73R1lOA1RQNxlwT0N0CWdBimGzBhLxqY4EOhPiAv5hMkQIFabEyMOotpR0cpu1X1/YECxons0JUrVuqRfvR0bNa8hbadzwspsN4xydatXav+Ic58pBcICWhWkY3lZOAEMU/Op4uNiZV9+/dp3D+iWjWpFlFNE1FoJYVKSeGNuY3fNzObngeLmoHFW0uXpd27d2vHIj6XCAasS3NLmwRcAy2NxCtUyePGbMOMoOoRckCK0Pae8XdK8z+O/0Uzzhd1AULsdG7GHwEZEMWo3yBK+yf6Y9coT4FxIwuWlmb8G+diZI1I4ag/Hf+QAmbsM8b/8jXsXPs80tPPSdLpJD1FmXoIQuaMeaNGjVW45iZikBXcRgZO0OX4kFlEsFlG+WeaSijUWHW2FCuqDSdZmNwIpzedO3tOuyAlJ5mH+cuJQmgVVYx0q24IhZTcYDYJsgsWFqYD2YB7du/RegHGF18CLeqLFS0moUVCJaRAiC7Ki4YEIGCIhAWcnMT5lKm6WCHwqkblJTefqIVNwlcH408fSTQFenxS8cghqAjC4o71D7kSDtTxv3hJzQAEIOPPe+lRydEBkDnCFLMDp6U74HYycAKJToHNiRMn1eHH2Y1sdJxdFy9e0IEwwyfXmEGBGKiBL2oGC+dMmdJldAEyeMFsl+YFnFdAv8OTJ05oBIZzDNjozpN2WLhscMYfcihiSALCYOw5w4IIkafDZoEECBYbH38X4+/c6Ghfl48/6xthSWIThAEJ0zi1hBl/fD/uHH+PkcHlcJoADAR/nWoRP1PJwDwIWSL9edgEYB1YdBAz4+58XLkYIWPGnUXJv20CsA6Xjz/rn3+7Gn/Gnjnw5Ph7hQxs2LDhe7BFrg0bNhQ2GdiwYUNhk4ENGzYMRP4f8mwalBnvb+cAAAAASUVORK5CYII=;" vertex="1" parent="1">
                    <mxGeometry x="250" y="100" width="278.49" height="200" as="geometry"/>
                </mxCell>
                <mxCell id="3" value="Text" style="text;html=1;strokeColor=none;fillColor=none;align=center;verticalAlign=middle;whiteSpace=wrap;rounded=0;" vertex="1" parent="1">
                    <mxGeometry x="480" y="280" width="60" height="30" as="geometry"/>
                </mxCell>
                <mxCell id="4" value="Текст, содежащий описание данного шага&amp;nbsp;" style="rounded=1;whiteSpace=wrap;html=1;fillColor=#FFFFFF;fontColor=#000000;" vertex="1" parent="1">
                    <mxGeometry x="248.49" y="300" width="280" height="60" as="geometry"/>
                </mxCell>
                <mxCell id="5" value="" style="shape=singleArrow;whiteSpace=wrap;html=1;" vertex="1" parent="1">
                    <mxGeometry x="460" y="300" width="51.51" height="20" as="geometry"/>
                </mxCell>
                <mxCell id="7" value="" style="edgeStyle=none;html=1;fontColor=#000000;" edge="1" parent="1" target="2">
                    <mxGeometry relative="1" as="geometry">
                        <mxPoint x="304.254090909091" y="300" as="sourcePoint"/>
                    </mxGeometry>
                </mxCell>
                <mxCell id="8" value="" style="edgeStyle=none;html=1;fontColor=#000000;" edge="1" parent="1" target="2">
                    <mxGeometry relative="1" as="geometry">
                        <mxPoint x="304.254090909091" y="300" as="sourcePoint"/>
                    </mxGeometry>
                </mxCell>
                <mxCell id="9" value="" style="shape=singleArrow;direction=west;whiteSpace=wrap;html=1;" vertex="1" parent="1">
                    <mxGeometry x="270" y="300" width="50" height="20" as="geometry"/>
                </mxCell>
            </root>
        </mxGraphModel>
    </diagram>
</mxfile>